# xmcd
#
# Track frame offsets:
# 150
# 14858
# 30833
# 43084
# 61059
# 80368
# 99600
# 116875
# 131124
# 146502
# 163088
# 181294
# 195834
# 213978
#
# Disc length: 3091 seconds
#
#
# Revision: 0
# Processed by: cddbd v1.5.1PL0 Copyright (c) Steve Scherf et al.
# Submitted via: FreeRIP 2.942 
#
DISCID=bf0c110e
DTITLE=Chrystian e Ralf - Chrytian e Ralf-Ausência
DYEAR=2004
DGENRE=Country
TTITLE0=Poeira No Vento
TTITLE1=Ausência
TTITLE2=Saudade-Ao Vivo
TTITLE3=Distância
TTITLE4=Chora Peito-Ao Vivo
TTITLE5=Cheiro de Shampoo
TTITLE6=Mia Gioconda
TTITLE7=Vida Dividida
TTITLE8=Sensível Demais-Ao Vivo
TTITLE9=Nova York
TTITLE10=Oito Segundos-Ao Vivo
TTITLE11=O Show Vai Começar
TTITLE12=É Só Dizer O Preço
TTITLE13=Noite
EXTD=by lopesallan@hotmail.com
EXTT0=
EXTT1=
EXTT2=
EXTT3=
EXTT4=
EXTT5=
EXTT6=
EXTT7=
EXTT8=
EXTT9=
EXTT10=
EXTT11=
EXTT12=
EXTT13=
PLAYORDER=
